<?xml version="1.0" encoding="iso-8859-1"?>
<!-- Uploaded to: SVG Repo, www.svgrepo.com, Generator: SVG Repo Mixer Tools -->
<svg fill="#000000" height="800px" width="800px" version="1.1" id="Layer_1" xmlns="http://www.w3.org/2000/svg" xmlns:xlink="http://www.w3.org/1999/xlink" 
	 viewBox="0 0 512 512" xml:space="preserve">
<g transform="translate(1 1)">
	<g>
		<g>
			<path d="M178.2,357.4H58.733c-5.12,0-8.533,3.413-8.533,8.533v102.4c0,5.12,3.413,8.533,8.533,8.533H178.2
				c5.12,0,8.533-3.413,8.533-8.533v-102.4C186.733,360.813,183.32,357.4,178.2,357.4z M169.667,459.8h-102.4v-85.333h102.4V459.8z"
				/>
			<path d="M92.867,408.6h51.2c5.12,0,8.533-3.413,8.533-8.533c0-5.12-3.413-8.533-8.533-8.533h-51.2
				c-5.12,0-8.533,3.413-8.533,8.533C84.333,405.187,87.747,408.6,92.867,408.6z"/>
			<path d="M92.867,442.733H127c5.12,0,8.533-3.413,8.533-8.533s-3.413-8.533-8.533-8.533H92.867c-5.12,0-8.533,3.413-8.533,8.533
				S87.747,442.733,92.867,442.733z"/>
			<path d="M485.4-1H314.733c-13.653,0-25.6,11.093-25.6,25.6v76.8H255v-8.533c0-5.12-3.413-8.533-8.533-8.533h-85.333
				c-5.12,0-8.533,3.413-8.533,8.533v8.533H41.667C17.773,101.4-1,121.027-1,144.067v324.267C-1,492.227,18.627,511,41.667,511
				h324.267c23.893,0,42.667-18.773,42.667-42.667V220.867h76.8c13.653,0,25.6-11.947,25.6-25.6V24.6C511,10.947,499.907-1,485.4-1z
				 M169.667,101.4h68.267v8.533v84.48l-29.013-23.04c-2.56-2.56-6.827-2.56-10.24,0l-29.013,23.04v-84.48V101.4z M391.533,468.333
				c0,14.507-11.093,25.6-25.6,25.6H41.667c-14.507,0-25.6-11.947-25.6-25.6V144.067c0-14.507,11.947-25.6,25.6-25.6H152.6v77.653
				c0,5.973,3.413,11.947,9.387,14.507c5.12,2.56,11.947,2.56,17.067-1.707l24.747-19.627l24.747,19.627
				c3.413,2.56,6.827,3.413,10.24,3.413c2.56,0,5.12,0,6.827-1.707c5.973-2.56,9.387-8.533,9.387-14.507v-77.653h34.133v76.8
				c0,14.507,11.093,25.6,25.6,25.6h76.8V468.333z M493.933,195.267c0,4.267-3.413,8.533-8.533,8.533h-85.333h-85.333
				c-4.267,0-8.533-3.413-8.533-8.533v-85.333V24.6c0-4.267,3.413-8.533,8.533-8.533H485.4c4.267,0,8.533,3.413,8.533,8.533V195.267
				z"/>
			<path d="M459.8,101.4h-98.987l19.627-19.627c3.413-3.413,3.413-8.533,0-11.947c-3.413-3.413-8.533-3.413-11.947,0L335.82,102.5
				c-2.509,1.395-4.02,4.034-4.02,7.433s1.511,6.038,4.02,7.433l32.673,32.673c1.707,1.707,3.413,2.56,5.973,2.56
				s4.267-0.853,5.973-2.56c3.413-3.413,3.413-8.533,0-11.947l-19.627-19.627H459.8c5.12,0,8.533-3.413,8.533-8.533
				S464.92,101.4,459.8,101.4z"/>
		</g>
	</g>
</g>
</svg>