<svg id="Capa_1" enable-background="new 0 0 510 510" height="50" viewBox="0 0 510 510" width="50" xmlns="http://www.w3.org/2000/svg">
  <g><path d="m390 450h60v60h-60z"/><path d="m345.83 315h-15.83c0 41.355-33.645 75-75 75s-75-33.645-75-75h-15.83c-57.44 0-104.17 47.103-104.17 105h90v90h210v-90h90c0-57.897-46.73-105-104.17-105z"/>
  <path d="m60 450h60v60h-60z"/><path d="m405 0h-165c-49.705 0-90 40.294-90 90h165c49.705 0 90-40.294 90-90z"/>
  <path d="m210.638 322.503c3.583 21.253 22.106 37.497 44.362 37.497s40.779-16.244 44.362-37.497c-28.198 9.839-59.616 10.156-88.724 0z"/>
  <path d="m255 300c57.897 0 105-47.103 105-105v-75c-7.023 0-205.087 0-210 0v75c0 57.897 47.104 105 105 105zm-30-105h60v30h-60z"/></g></svg>